<svg xmlns="http://www.w3.org/2000/svg" viewBox="0 0 400.03 269.54"><defs><style>.cls-1{fill:#fff;}</style></defs><g id="Layer_2" data-name="Layer 2"><g id="Layer_1-2" data-name="Layer 1"><path class="cls-1" d="M216.43,269.19c1.17-16.9,11.9-24.54,38.72-28.12-1.79-6.32-4.07-12.54-5.27-19-2.58-13.86-.85-27.23,6.63-39.44a12.51,12.51,0,0,1,5.41-4.64c17.8-7.61,26.07-23.59,19.67-41.84-3.4-9.7-9.35-18.61-14.79-27.47-2.89-4.7-5.92-4.1-8.24,1-1.42,3.14-2.22,6.55-3.53,10.55-3.55,0-7.57-.81-11.09.17a112.55,112.55,0,0,0-18.45,7.13c-2.49,1.19-3.89,1.46-6.1-.26a55.68,55.68,0,0,0-9.28-5.8c-6-3-8.13-1.82-8.08,4.74.09,12.63,2.38,24.92,9.1,35.81,2.2,3.56,1.69,5.95-.93,8.15-4.7,4-9.63,7.64-14.57,11.3-4.14,3.08-8.35,6.07-12.67,8.89-16.09,10.52-23.32,26.2-24.88,44.55-1,11.21-.17,22.56-.17,34.19H124.47c.73-11.29,1.69-22.35,2.07-33.43a186.67,186.67,0,0,0-.62-21.93c-1-12.15-7.45-21.43-16.42-29.27C96.83,173.46,84,162.58,74.39,148.47c-7.74-11.42-13.43-23.64-15.32-37,5.37,6.37,10.79,13,16.41,19.44,10.07,11.56,22.9,17.36,38.19,17.9,20.93.74,40-4.53,56-18.44,18.83-16.4,19.8-41.13,2.26-59-8.4-8.54-17.72-16.15-26.39-24.44-6.33-6-11.2-13.2-13.59-21.77a39.42,39.42,0,0,1-1.51-8.32c-.73-13.83,6.31-19.46,19.67-15.8a46.88,46.88,0,0,1,8,2.74,100.11,100.11,0,0,0,39.47,9.63c9,.38,14.13,3.78,14.46,10.11a21.27,21.27,0,0,1-3.29,12c-6.05,9.21-17.05,13.41-27.63,9.87-9-3-17.41-7.83-26.07-11.85.91,1.58,1.71,4.31,3.52,5.86,5.39,4.61,10.64,9.9,16.92,12.88,22.81,10.83,46.15,20.54,69,31.22,24.48,11.42,48,24.54,69.06,41.72,19,15.49,30.49,35.31,34.9,59.34.2,1.13.48,2.25.84,3.91,14.6-4.42,25.17-13.09,28.79-27.72,2.4-9.71,2.24-20,3.2-30.1.08-.82-.34-1.74-.09-2.48.67-2,1.57-3.9,2.38-5.84,1.89,1,4.45,1.51,5.56,3.06a57.77,57.77,0,0,1,10.81,31.17c1.62,31.91-18.62,58.86-49.78,66.51-3.12.76-4.61,2.32-5.76,5.27-6.46,16.69-16.59,30.37-33.29,38.05a30.53,30.53,0,0,1-12,2.94c-26.5.25-53,.13-79.51.12C218.64,269.5,217.68,269.31,216.43,269.19Z"/><path class="cls-1" d="M0,81.89C.42,68.42,3.78,58.34,11.64,50.56c9.19-9.12,19-17.62,28.83-26.07,4.83-4.17,10.58-2.72,13.94,2.71,2.89,4.65,2.25,9.58,1.22,14.5a42.61,42.61,0,0,1-2.35,8.11C47.72,62.71,44.41,76.17,42,90c-1.84,10.57-7.14,15.38-16.54,16.38C15.23,107.44,6.73,102.82,3,93.51,1.3,89.11.61,84.3,0,81.89Z"/><path class="cls-1" d="M81,269.5c3.08-31,2.49-61.49-.38-92.2,11.26,12.6,28.87,20.31,30.81,39.94a185.45,185.45,0,0,1,.36,24.39c-.27,8.13-1.13,16.25-2,24.34-.14,1.27-1.85,3.34-2.89,3.37C98.42,269.62,90,269.5,81,269.5Z"/><path class="cls-1" d="M134.07,127.76c-.83,0-1.67.06-2.49,0-9.32-.72-16.2-5.74-17.64-12.83-1.33-6.55,2.39-12.51,11.3-16.86,7.51-3.67,15.36-6.51,24-4.81,9.4,1.86,13.69,10,10,18.88C155.23,121.76,145.58,127.77,134.07,127.76Z"/><path class="cls-1" d="M89.51,64.44A7.7,7.7,0,0,1,97,71.59a7.47,7.47,0,1,1-14.93.08A7.71,7.71,0,0,1,89.51,64.44Z"/><path class="cls-1" d="M126.1,52.05a7.18,7.18,0,1,1-7.21,7.27A7.14,7.14,0,0,1,126.1,52.05Z"/><path class="cls-1" d="M241.94,148.37c-1.94,1.24-3.75,3.17-5.84,3.54-3.07.54-5.4-1.82-4.73-4.71.44-1.92,3-4.45,4.8-4.67s3.84,2.2,5.77,3.46Z"/><path class="cls-1" d="M265.79,133.61c1.13,1.87,3.25,3.82,3.1,5.58-.13,1.53-2.83,4-4.36,3.94s-4.21-2.55-4.26-4.07c-.07-1.78,2.13-3.65,3.35-5.48Z"/><path class="cls-1" d="M257.8,148.91c1.36,1.65,3.16,3.32,2.94,3.65-1,1.48-2.46,3.45-3.87,3.55s-2.87-1.91-4.31-3Z"/></g></g></svg>