<svg xmlns="http://www.w3.org/2000/svg" viewBox="0 0 881.56 258.57"><defs><style>.cls-1{fill:#fff;}</style></defs><g id="Layer_2" data-name="Layer 2"><g id="Layer_1-2" data-name="Layer 1"><path class="cls-1" d="M285.1,151.42a39.31,39.31,0,0,0-5-16.49c-1.16-2-2.46-3.77-4.86-4.22-1.74-.33-1.72,8.43-1.79,9.38-.56,7.36-.9,15.83-5.3,22.09a22.46,22.46,0,0,1-6.12,5.86c-.63.41-8,4-8.18,3.43-.81-3.3-1.48-6.63-2.45-9.88-3.88-13-11.69-23.13-22.34-31.33-14.33-11-30.19-19.33-46.61-26.71l-36-16.19c-4.58-2.06-8.1-5.52-11.69-8.86a5.82,5.82,0,0,1-1.38-3c1.83.89,3.64,1.87,5.52,2.65,4.18,1.75,8.27,3.93,12.63,5,8.37,2,17-5.24,16.86-13.7a5.34,5.34,0,0,0-3.35-5.27,15.84,15.84,0,0,0-5.19-1.21,66.55,66.55,0,0,1-24.13-5.63A45.52,45.52,0,0,0,128,54.72c-6-1.44-10.16,1.92-10.21,8.33-.06,8.08,3.32,14.74,9,20.23,4.67,4.48,9.54,8.75,14.31,13.12,4.17,3.82,7.72,8.09,9.28,13.64,2.69,9.62-.17,17.75-7.21,24.45-7.92,7.55-17.54,11.38-28.42,12.3-6.15.52-12.19.27-18.07-1.81s-10.58-6-14.55-10.75c-2.78-3.36-5.61-6.67-8.72-10.35a51.8,51.8,0,0,0,6,17.16c5,9.21,12.2,16.53,20,23.38,3.28,2.89,6.57,5.8,9.55,9,4.22,4.51,5.89,10.09,6.28,16.22.62,9.91-.32,19.75-1,29.61,0,.7-.07,1.41-.11,2.24h20.6c0-1.42,0-2.84,0-4.25.19-6.76,0-13.56.73-20.26,1.15-10.28,6.3-18.36,14.92-24.28,5.62-3.86,11-8,16.5-12.12,2.25-1.69,2.48-3,1-5.41-4.29-7.1-5.77-14.87-5.59-23,.07-3.06,1.38-3.91,4.17-2.54a37.33,37.33,0,0,1,6,3.56,4.2,4.2,0,0,0,4.8.38,70.58,70.58,0,0,1,9-3.56,25,25,0,0,1,6.87-.8c1.56,0,2.31-.33,2.73-1.94a26.85,26.85,0,0,1,2.27-5.81c.95-1.79,2.68-1.94,3.74-.31,4.13,6.3,8.46,12.54,10.47,19.92,2.67,9.77-1.66,18.76-11.33,23.31a12.87,12.87,0,0,0-6.47,6.59c-4,8.46-3.9,17.11-1.43,25.91.67,2.4,1.42,4.79,2.17,7.32-2.75.55-5.39,1-8,1.61A26.73,26.73,0,0,0,177,210.14c-3.75,2.83-5.37,6.72-5.67,11.5.87.09,1.62.23,2.37.23q23.93,0,47.86-.07c7.16,0,12.81-3.51,17.91-8.06a42.07,42.07,0,0,0,11-16.79,6.44,6.44,0,0,1,4.69-4.18c14.4-4.15,26.33-15.66,29.29-30.59A39.58,39.58,0,0,0,285.1,151.42Z"/><path class="cls-1" d="M72.11,76.19C71.43,74.42,71,72.44,70,70.87c-2.1-3.17-5.45-3.51-8.34-1-4.22,3.64-8.38,7.35-12.53,11.06-1.74,1.56-3.39,3.22-5.09,4.83-6.32,6-9.5,17.85-5.35,27.24a13.56,13.56,0,0,0,19.19,5.87c2.85-1.79,4.15-4.61,4.7-7.74a127.3,127.3,0,0,1,7.26-26.18C70.91,82.26,71.32,79.31,72.11,76.19Z"/><path class="cls-1" d="M119.89,133.81c6.5-.19,11.9-2.43,15.12-8.46,3.52-6.59.23-12.63-7.24-13.12A24.3,24.3,0,0,0,110.66,118c-5,4-4.25,10.57,1.3,13.87A14,14,0,0,0,119.89,133.81Z"/><path class="cls-1" d="M96.85,99.1a4.55,4.55,0,1,0-9.1.25,4.55,4.55,0,0,0,9.1-.25Z"/><path class="cls-1" d="M115.08,86.94a4.32,4.32,0,0,0-4.5,4.33,4.44,4.44,0,0,0,8.88.12A4.31,4.31,0,0,0,115.08,86.94Z"/><path class="cls-1" d="M183.87,142.34a3.66,3.66,0,0,0-3.8,3.65,3.75,3.75,0,0,0,7.49.1A3.63,3.63,0,0,0,183.87,142.34Z"/><path class="cls-1" d="M201.2,136.94a3.66,3.66,0,0,0-3.8,3.65,3.75,3.75,0,0,0,7.49.1A3.63,3.63,0,0,0,201.2,136.94Z"/><path class="cls-1" d="M196.41,146.71A2.33,2.33,0,0,0,194,149a2.39,2.39,0,0,0,4.77.07A2.32,2.32,0,0,0,196.41,146.71Z"/><path class="cls-1" d="M400.43,126.54c-7.11,31.77-13.91,63.68-18,80.47-2.87,11.8-5,13.92-9.53,13.92-12.25,0-14.82-7.57-13.61-13.16.15-.61.61-4.54,2-10.44a53.28,53.28,0,0,0-15-17.09c-15.43,30.55-25,57.33-45.53,57.33-3.17,0-20-1.06-20-7a3.37,3.37,0,0,1,3.48-3.63c17.84,0,26.92-27.53,42.8-56.12a43.49,43.49,0,0,0-9.83-1.21c-11.19,0-5.45,9.38-11.5,9.38S297,172.68,297,167.84c0-4.69,3.48-15.28,17.55-15.28a63.28,63.28,0,0,1,20.72,3.78c11.5-21.78,29.65-49,55.51-49C402.25,107.33,402.55,117,400.43,126.54Zm-24.2,4.24c-6.2,0-13.76,15.58-23,34.79a57.46,57.46,0,0,1,12.55,11.64C370.63,155.58,376.23,130.78,376.23,130.78Z"/><path class="cls-1" d="M489.22,192.34c-5.9,15.43-16.34,29.34-31.77,29.34-11.49,0-16.48-6.05-18.6-12C431,219,421,223.65,412.38,220.93c-13.46-4.24-18.46-24.81-11.2-45.68,7.26-21,23.9-34.34,37.21-30.1A16,16,0,0,1,446,150c3.78-17.55,7.86-33.73,10-38.42,1.36-3,3.48-4.09,6.5-4.24,3.48,0,16.19,1.67,16.19,6.51s-17.85,64.43-17.85,79.1c0,5,1.36,10,6.2,10a7.4,7.4,0,0,0,4.69-2.12c2.72-2.42,5-6.5,7.11-11.34,1.06-3,3-8.47,8.17-8.47a3.81,3.81,0,0,1,2.57,1.05C491.49,184.32,490.28,189.92,489.22,192.34Zm-50.83-7.71c3.48-10.14,2.42-19.37-2.26-20.88s-11.2,5.45-14.68,15.43-2.42,19.36,2.27,20.72C428.41,201.42,434.92,194.61,438.39,184.63Z"/><path class="cls-1" d="M559.4,172.52c-5,4.54-13,5.9-17.7,6.06-1.21,20.26-16.64,43.1-39,43.1-24.35,0-26.62-20.26-26.62-27.07,0-18.76,13.46-50.83,41.75-50.83,21.18,0,23.9,20,23.9,23.15A23.25,23.25,0,0,0,555,163.15C563.94,157.25,565.6,166.63,559.4,172.52Zm-35.85,13.32A31.13,31.13,0,0,1,519,186c-4.08,0-8-4.69-8-9.53a10.36,10.36,0,0,1,10.14-10.74c0-.91-1.82-3.18-4.84-3.18-13.77,0-25.56,40.09-7.41,40.09C513.11,202.63,519.46,198.39,523.55,185.84Z"/><path class="cls-1" d="M634.27,188c-1.52,6.51-8.78,33.73-52.19,33.73-5.6,0-11.65-2.11-16.79-5.14-3,16.49-5.44,30.56-6.81,36.91-2.87,12.4-22.23-.15-20.42-12.1l20-93.63s1.51-2.88,9.38-2.88c9.83,0,12.55,4.69,11.49,8.32,7.27-7.11,14.37-10.43,21.94-8,13.31,4.23,18.3,24.65,11,45.53a66,66,0,0,1-6.2,13.16c11-3.94,15.43-11.5,18.6-18.16C627.31,179.18,635.93,178.88,634.27,188ZM589.8,163.6c-4.69-1.36-11.2,5.45-14.68,15.43s-2.42,19.36,2.27,20.87,11.2-5.44,14.67-15.43S594.48,165.11,589.8,163.6Z"/><path class="cls-1" d="M663.15,113.84c0,.6-3.33,14.06-7,29.19,6.36,0,9.08-2,9.08,5.9s-8.47,8.77-12.71,8.77c-1.21,6.66-7.26,26.47-7.26,35.24,0,5,1.37,10,6.21,10,3.47,0,5.44-4.69,7.41-.76,2.27,4.54-6.36,19.51-17.85,19.51-16.34,0-19.06-14.52-19.06-20.26,0-7.11,3.33-26.32,7.26-45.23-4.24-.91-6.66-2.57-6.66-5.45,0-3.48.61-7,3.33-7.11,1.06,0,3.33-.15,6-.15,3.33-15,6.66-27.83,8.47-31.91,1.36-3,3.48-4.09,6.51-4.24C650.45,107.33,663.15,109,663.15,113.84Z"/><path class="cls-1" d="M752.39,138c-3.48,13.46-5.9,24.05-7.71,33,27.52-8.17,30.4-49.16,3.78-49.16S713.82,142,713.82,151.2c0,7.56-3.78,8.77-6.81,8.77-5.29,0-10.89-5.75-10.89-13.16,0-11.34,18.61-39.48,57.18-39.48,56.42,0,33.43,72.76-11.35,76.69-1.66,8.17-3,15.28-4.84,23-2.87,11.8-6.65,13.92-10,13.92-14.67,0-14.67-9.38-13-17.25,2.57-12,11.19-56.42,15.43-67.76,1.66-4.08,5-4.69,10-4.24C746,132.29,753.15,135.16,752.39,138Z"/><path class="cls-1" d="M811.38,221.68c-23.6,0-33.43-15.27-33.43-30.55,0-18.61,14.52-47.35,42.2-47.35,32.52,0,6.05,50.53-18,50.53,3.18,7.71,11.8,9.37,15.88,9.37,9.38,0,18-6.2,22.24-17.24.45-1.21,2.42-5.44,7-5.44C858.12,181,842.69,221.68,811.38,221.68Zm-10.44-38.42c6.81-1.51,18.45-10.58,18.45-18.75v-.15c0-1.21-.6-2.12-2.72-2.12C810.17,162.24,802.15,172.52,800.94,183.26Z"/><path class="cls-1" d="M879.44,113.84c0,.6-3.33,14.06-7,29.19,6.35,0,9.08-2,9.08,5.9s-8.47,8.77-12.71,8.77c-1.21,6.66-7.26,26.47-7.26,35.24,0,5,1.36,10,6.2,10,3.48,0,5.45-4.69,7.41-.76,2.27,4.54-6.35,19.51-17.85,19.51-16.33,0-19.05-14.52-19.05-20.26,0-7.11,3.32-26.32,7.26-45.23-4.24-.91-6.66-2.57-6.66-5.45,0-3.48.61-7,3.33-7.11,1.06,0,3.33-.15,6-.15,3.33-15,6.65-27.83,8.47-31.91,1.36-3,3.48-4.09,6.5-4.24C866.73,107.33,879.44,109,879.44,113.84Z"/><path class="cls-1" d="M29.15,62.14a4.11,4.11,0,0,1-.29.3q-9.3,9.68-18.69,19.25A34.17,34.17,0,0,0,1.57,96.4C.83,99,.51,101.64,0,104.27v5c.47,2.63.76,5.31,1.44,7.89a37.06,37.06,0,0,0,30.25,26.67,38.14,38.14,0,0,0,4.65.35c1.14,0,1.67.46,1.66,1.58,0,5.33-.13,10.66-.13,16,0,3.35.13,6.7.15,10.05,0,5.4-.08,10.8.09,16.19.46,14,7.07,24.27,19.34,30.92A33.72,33.72,0,0,0,74,222.79c3.78,0,7.56.12,11.33,0,5.73-.22,11.46-.62,17.18-1a2.4,2.4,0,0,0,2.33-2.5c.43-4.47,1-8.94,1.16-13.42.14-5.8.06-11.62-.31-17.41a16.42,16.42,0,0,0-4.83-10.41c-4.45-4.5-9.19-8.7-14.09-13.3A327.59,327.59,0,0,1,88,209.49c-10.66.83-20.77-.12-29.17-7.11-2.2-1.82-3.52-4.91-4.76-7.64a36.27,36.27,0,0,1-2.93-15.2q0-10.77,0-21.53,0-5.49,0-11c0-2.78.77-5.85-.34-8.51a12.73,12.73,0,0,0-10.57-7.64,30.35,30.35,0,0,1-18.55-7.2c-2.61-2.26-4.1-5.93-5.78-9.12C12,107,14.81,100.27,18.92,94a59.57,59.57,0,0,1,7.6-9C36.93,74.36,47.47,64,58,53.49c9.42-9.41,18.78-19.09,28.13-28.74,0,0-14.08-6.13-14.76-5.73C70.94,19.24,41.94,47.87,29.15,62.14Z"/><path class="cls-1" d="M213.27,69.74q-24.95-25-49.74-50.17A64.71,64.71,0,0,0,129.32,1.18C126.58.63,123.78.39,121,0h-7.56c-2.47.35-5,.65-7.4,1.07C93.71,3.18,82.68,8.26,73.72,17,68.43,22.11,58,32.49,58,32.49l13.82,6.7,9.5-9.78a48.06,48.06,0,0,1,28.55-14.54C126,12.71,140.29,17,152,28.39s23.18,23.12,34.76,34.69l16.29,16.27,14.61-5.27C216.21,72.64,214.73,71.2,213.27,69.74Z"/><path class="cls-1" d="M230.13,88.71c-5.12-8.39-12.58-15-19.7-21.82C200.07,57,190.18,46.71,180.31,36.38L169.7,45.72c9.57,9.9,19.22,19.74,29.07,29.36,5.89,5.75,11.88,11.46,16.66,18.16,5.53,7.76,8.94,17.21,16.86,23a1.9,1.9,0,0,0,1.49.52c.52-.13.83-.67,1.05-1.16,1.84-4.2,1.09-9.36.31-13.72a38.25,38.25,0,0,0-4.87-13Z"/></g></g></svg>