<svg xmlns="http://www.w3.org/2000/svg" viewBox="0 0 285.22 222.83"><defs><style>.cls-1{fill:#bfb2d8;}</style></defs><g id="Layer_2" data-name="Layer 2"><g id="Layer_1-2" data-name="Layer 1"><path class="cls-1" d="M285.1,151.42a39.31,39.31,0,0,0-5-16.49c-1.16-2-2.46-3.77-4.86-4.22-1.74-.33-1.72,8.43-1.79,9.38-.56,7.36-.9,15.83-5.3,22.09a22.46,22.46,0,0,1-6.12,5.86c-.63.41-8,4-8.18,3.43-.81-3.3-1.48-6.63-2.45-9.88-3.88-13-11.69-23.13-22.34-31.33-14.33-11-30.19-19.33-46.61-26.71l-36-16.19c-4.58-2.06-8.1-5.52-11.69-8.86a5.82,5.82,0,0,1-1.38-3c1.83.89,3.64,1.87,5.52,2.65,4.18,1.75,8.27,3.93,12.63,5,8.37,2,17-5.24,16.86-13.7a5.34,5.34,0,0,0-3.35-5.27,15.84,15.84,0,0,0-5.19-1.21,66.55,66.55,0,0,1-24.13-5.63A45.52,45.52,0,0,0,128,54.72c-6-1.44-10.16,1.92-10.21,8.33-.06,8.08,3.32,14.74,9,20.23,4.67,4.48,9.54,8.75,14.31,13.12,4.17,3.82,7.72,8.09,9.28,13.64,2.69,9.62-.17,17.75-7.21,24.45-7.92,7.55-17.54,11.38-28.42,12.3-6.15.52-12.19.27-18.07-1.81s-10.58-6-14.55-10.75c-2.78-3.36-5.61-6.67-8.72-10.35a51.8,51.8,0,0,0,6,17.16c5,9.21,12.2,16.53,20,23.38,3.28,2.89,6.57,5.8,9.55,9,4.22,4.51,5.89,10.09,6.28,16.22.62,9.91-.32,19.75-1,29.61,0,.7-.07,1.41-.11,2.24h20.6c0-1.42,0-2.84,0-4.25.19-6.76,0-13.56.73-20.26,1.15-10.28,6.3-18.36,14.92-24.28,5.62-3.86,11-8,16.5-12.12,2.25-1.69,2.48-3,1-5.41-4.29-7.1-5.77-14.87-5.59-23,.07-3.06,1.38-3.91,4.17-2.54a37.33,37.33,0,0,1,6,3.56,4.2,4.2,0,0,0,4.8.38,70.58,70.58,0,0,1,9-3.56,25,25,0,0,1,6.87-.8c1.56,0,2.31-.33,2.73-1.94a26.85,26.85,0,0,1,2.27-5.81c.95-1.79,2.68-1.94,3.74-.31,4.13,6.3,8.46,12.54,10.47,19.92,2.67,9.77-1.66,18.76-11.33,23.31a12.87,12.87,0,0,0-6.47,6.59c-4,8.46-3.9,17.11-1.43,25.91.67,2.4,1.42,4.79,2.17,7.32-2.75.55-5.39,1-8,1.61A26.73,26.73,0,0,0,177,210.14c-3.75,2.83-5.37,6.72-5.67,11.5.87.09,1.62.23,2.37.23q23.93,0,47.86-.07c7.16,0,12.81-3.51,17.91-8.06a42.07,42.07,0,0,0,11-16.79,6.44,6.44,0,0,1,4.69-4.18c14.4-4.15,26.33-15.66,29.29-30.59A39.58,39.58,0,0,0,285.1,151.42Z"/><path class="cls-1" d="M72.11,76.19C71.43,74.42,71,72.44,70,70.87c-2.1-3.17-5.45-3.51-8.34-1-4.22,3.64-8.38,7.35-12.53,11.06-1.74,1.56-3.39,3.22-5.09,4.83-6.32,6-9.5,17.85-5.35,27.24a13.56,13.56,0,0,0,19.19,5.87c2.85-1.79,4.15-4.61,4.7-7.74a127.3,127.3,0,0,1,7.26-26.18C70.91,82.26,71.32,79.31,72.11,76.19Z"/><path class="cls-1" d="M119.89,133.81c6.5-.19,11.9-2.43,15.12-8.46,3.52-6.59.23-12.63-7.24-13.12A24.3,24.3,0,0,0,110.66,118c-5,4-4.25,10.57,1.3,13.87A14,14,0,0,0,119.89,133.81Z"/><path class="cls-1" d="M96.85,99.1a4.55,4.55,0,1,0-9.1.25,4.55,4.55,0,0,0,9.1-.25Z"/><path class="cls-1" d="M115.08,86.94a4.32,4.32,0,0,0-4.5,4.33,4.44,4.44,0,0,0,8.88.12A4.31,4.31,0,0,0,115.08,86.94Z"/><path class="cls-1" d="M183.87,142.34a3.66,3.66,0,0,0-3.8,3.65,3.75,3.75,0,0,0,7.49.1A3.63,3.63,0,0,0,183.87,142.34Z"/><path class="cls-1" d="M201.2,136.94a3.66,3.66,0,0,0-3.8,3.65,3.75,3.75,0,0,0,7.49.1A3.63,3.63,0,0,0,201.2,136.94Z"/><path class="cls-1" d="M196.41,146.71A2.33,2.33,0,0,0,194,149a2.39,2.39,0,0,0,4.77.07A2.32,2.32,0,0,0,196.41,146.71Z"/><path class="cls-1" d="M29.15,62.14a4.11,4.11,0,0,1-.29.3q-9.3,9.68-18.69,19.25A34.17,34.17,0,0,0,1.57,96.4C.83,99,.51,101.64,0,104.27v5c.47,2.63.76,5.31,1.44,7.89a37.06,37.06,0,0,0,30.25,26.67,38.14,38.14,0,0,0,4.65.35c1.14,0,1.67.46,1.66,1.58,0,5.33-.13,10.66-.13,16,0,3.35.13,6.7.15,10.05,0,5.4-.08,10.8.09,16.19.46,14,7.07,24.27,19.34,30.92A33.72,33.72,0,0,0,74,222.79c3.78,0,7.56.12,11.33,0,5.73-.22,11.46-.62,17.18-1a2.4,2.4,0,0,0,2.33-2.5c.43-4.47,1-8.94,1.16-13.42.14-5.8.06-11.62-.31-17.41a16.42,16.42,0,0,0-4.83-10.41c-4.45-4.5-9.19-8.7-14.09-13.3A327.59,327.59,0,0,1,88,209.49c-10.66.83-20.77-.12-29.17-7.11-2.2-1.82-3.52-4.91-4.76-7.64a36.27,36.27,0,0,1-2.93-15.2q0-10.77,0-21.53,0-5.49,0-11c0-2.78.77-5.85-.34-8.51a12.73,12.73,0,0,0-10.57-7.64,30.35,30.35,0,0,1-18.55-7.2c-2.61-2.26-4.1-5.93-5.78-9.12C12,107,14.81,100.27,18.92,94a59.57,59.57,0,0,1,7.6-9C36.93,74.36,47.47,64,58,53.49c9.42-9.41,18.78-19.09,28.13-28.74,0,0-14.08-6.13-14.76-5.73C70.94,19.24,41.94,47.87,29.15,62.14Z"/><path class="cls-1" d="M213.27,69.74q-24.95-25-49.74-50.17A64.71,64.71,0,0,0,129.32,1.18C126.58.63,123.78.39,121,0h-7.56c-2.47.35-5,.65-7.4,1.07C93.71,3.18,82.68,8.26,73.72,17,68.43,22.11,58,32.49,58,32.49l13.82,6.7,9.5-9.78a48.06,48.06,0,0,1,28.55-14.54C126,12.71,140.29,17,152,28.39s23.18,23.12,34.76,34.69l16.29,16.27,14.61-5.27C216.21,72.64,214.73,71.2,213.27,69.74Z"/><path class="cls-1" d="M230.13,88.71c-5.12-8.39-12.58-15-19.7-21.82C200.07,57,190.18,46.71,180.31,36.38L169.7,45.72c9.57,9.9,19.22,19.74,29.07,29.36,5.89,5.75,11.88,11.46,16.66,18.16,5.53,7.76,8.94,17.21,16.86,23a1.9,1.9,0,0,0,1.49.52c.52-.13.83-.67,1.05-1.16,1.84-4.2,1.09-9.36.31-13.72a38.25,38.25,0,0,0-4.87-13Z"/></g></g></svg>